<svg width="123" height="120" viewBox="0 0 123 120" fill="none" xmlns="http://www.w3.org/2000/svg">
<rect x="13" y="9" width="98" height="98" fill="#D9D9D9"/>
<path fill-rule="evenodd" clip-rule="evenodd" d="M15.5614 0.0855365C9.77765 0.941119 4.89401 4.16021 2.23526 8.86937C1.18401 10.7312 0.721053 11.9452 0.328344 13.8699C0.0252251 15.3551 0.0199643 16.0902 0.00371749 59.92C-0.0112915 100.388 0.0102163 104.578 0.237826 105.742C0.741478 108.317 1.81655 110.815 3.3289 112.923C5.95237 116.579 9.235 118.639 14.0503 119.651L15.713 120H61.5136C105.059 120 107.382 119.986 108.687 119.722C111.912 119.07 114.374 118.018 116.326 116.46C119.43 113.981 121.601 110.491 122.668 106.263C122.909 105.309 122.933 101.839 122.983 60.92C123.024 27.816 122.992 16.265 122.858 15.2454C122.298 11.0076 120.559 7.55284 117.571 4.74393C115.617 2.90645 113.883 1.8747 111.31 1.0182C108.335 0.0281484 111.583 0.0938442 61.823 0.0178403C35.7359 -0.0220079 16.0938 0.00676319 15.5614 0.0855365ZM65.2271 16.2287C70.1227 16.6798 74.3413 17.8109 79.824 20.1423C83.0036 21.4943 84.9036 22.6016 87.6186 24.6848C89.7731 26.3381 93.3584 29.8155 94.9183 31.7647C99.34 37.2901 101.905 43.157 103.328 50.9965C103.704 53.0701 103.733 53.5581 103.744 57.9199C103.757 63.128 103.616 64.3482 102.516 68.6127C100.836 75.1254 96.8177 82.0681 91.7416 87.2292C83.1987 95.9154 70.473 100.532 58.0321 99.4582C53.3428 99.0534 47.5506 97.6356 43.7056 95.9514L42.6088 95.4709L39.5279 96.4482C37.8334 96.9857 34.6367 97.9246 32.424 98.5346C30.2114 99.1446 27.5053 99.9141 26.4104 100.245C25.3156 100.575 24.2096 100.845 23.9526 100.845C22.72 100.845 21.417 100 20.9553 98.9017C20.6531 98.1824 20.6924 96.9348 21.054 95.768C21.5529 94.1585 25.0743 79.9749 25.0743 79.575C25.0743 79.3745 24.4601 78.0029 23.7097 76.5272C22.0828 73.3282 21.2923 71.1775 20.3601 67.4147C19.1829 62.6631 19.1165 62.1529 19.1227 57.9199C19.1289 53.6863 19.2025 53.1232 20.3689 48.3963C21.2425 44.8563 22.1427 42.4126 23.7727 39.1575C26.0249 34.6598 27.8415 32.105 31.2559 28.6329C35.2958 24.5248 39.563 21.5806 44.1403 19.7435C45.987 19.0022 50.3585 17.5707 52.232 17.0938C55.6933 16.2128 61.128 15.851 65.2271 16.2287ZM57.8774 23.2244C53.496 23.7531 48.7233 25.0939 45.5793 26.6795C43.5478 27.704 40.6494 29.565 39.0032 30.9017C36.5762 32.8725 33.4443 36.3463 31.5465 39.1725C31.1289 39.7947 30.3978 41.0992 29.9218 42.0715C24.8383 52.459 24.7684 62.6968 29.7103 73.0745C30.1939 74.09 30.9849 75.5716 31.4681 76.367C32.4763 78.0266 32.5029 78.2126 32.0471 80.4041C31.6765 82.1854 30.3201 87.9844 29.6995 90.4402C29.4457 91.4447 29.2703 92.2987 29.3097 92.338C29.3993 92.427 34.2081 90.915 38.9738 89.2992C40.9592 88.6261 42.7239 88.0753 42.8955 88.0753C43.0669 88.0753 44.1929 88.5176 45.3975 89.0581C50.6735 91.4256 53.8788 92.3063 58.651 92.6994C65.7679 93.2857 73.8927 91.4433 79.8093 87.9017C85.7943 84.3191 90.1917 79.5747 93.2439 73.4068C95.8664 68.1073 97.0365 62.7594 96.8174 57.0737C96.6553 52.8627 96.088 49.5905 94.9114 46.0767C93.2696 41.1736 90.5943 36.9602 86.5515 32.9095C82.8232 29.174 77.3763 26.0133 72.125 24.5383C67.1244 23.1336 62.3096 22.6896 57.8774 23.2244ZM81.6297 42.1269C83.0756 42.7965 83.9168 44.1069 83.9253 45.7027C83.9292 46.4467 83.845 46.7847 83.517 47.3412C82.9624 48.2822 57.9558 72.9497 57.0669 73.4328C56.2743 73.8633 55.0625 73.8409 54.0915 73.3776C53.1562 72.9313 40.8789 60.8493 40.4334 59.9366C39.7191 58.4739 40.1643 56.513 41.4511 55.4527C42.1771 54.8545 43.4635 54.4728 44.3147 54.6028C45.7803 54.8268 45.7613 54.8111 51.9976 60.9476L55.4792 64.3733L66.5363 53.4318C75.4821 44.5797 77.7424 42.4214 78.3733 42.1292C79.4141 41.6474 80.5921 41.6464 81.6297 42.1269Z" fill="#28A05A"/>
</svg>
